<svg xmlns="http://www.w3.org/2000/svg" width="278.0" height="80.0" viewBox="0.0 0.0 278.0 80.0" fill="none">
<path d="M277.887 0H0V80H277.887V0Z" fill="white" />
<path d="M48.5605 39.4969C48.7701 39.4969 48.9798 39.5807 49.1475 39.7484L50.7829 41.5094C49.9023 42.6415 48.7701 43.4801 47.4702 44.0671C46.1703 44.6541 44.5769 44.9476 42.7319 44.9476C41.0965 44.9476 39.5869 44.6541 38.287 44.109C36.9871 43.564 35.8549 42.7673 34.9324 41.761C34.0099 40.7547 33.297 39.5807 32.7938 38.1551C32.2907 36.7715 32.0391 35.2621 32.0391 33.5849C32.0391 31.9078 32.3326 30.3983 32.8777 29.0147C33.4228 27.631 34.2196 26.4151 35.2259 25.4507C36.2323 24.4445 37.4484 23.6478 38.8321 23.1027C40.2159 22.5577 41.7674 22.2642 43.4447 22.2642C45.0801 22.2642 46.5477 22.5157 47.7638 23.0608C48.9798 23.6059 50.0701 24.2767 50.9506 25.1572L49.5669 27.086C49.483 27.2117 49.3991 27.2956 49.2314 27.4214C49.1056 27.5053 48.9379 27.5472 48.6863 27.5472C48.4347 27.5472 48.225 27.4633 47.9734 27.2537C47.7218 27.086 47.4283 26.8763 47.0509 26.6667C46.6735 26.457 46.2123 26.2474 45.6252 26.0797C45.0381 25.912 44.3253 25.7862 43.4028 25.7862C42.3545 25.7862 41.39 25.9539 40.5094 26.3312C39.6288 26.7086 38.8741 27.2118 38.2451 27.8826C37.6161 28.5535 37.1129 29.392 36.7774 30.3564C36.442 31.3208 36.2323 32.4109 36.2323 33.6268C36.2323 34.8847 36.4 35.9749 36.7774 36.9392C37.1129 37.9036 37.6161 38.7421 38.2031 39.413C38.7902 40.0839 39.5031 40.587 40.3417 40.9224C41.1804 41.2579 42.0609 41.4675 42.9835 41.4675C43.5286 41.4675 44.0737 41.4256 44.493 41.3837C44.9543 41.3417 45.3736 41.2159 45.751 41.0902C46.1284 40.9644 46.5058 40.7967 46.8412 40.587C47.1767 40.3774 47.5122 40.1258 47.8476 39.8323C47.9315 39.7484 48.0573 39.6646 48.1831 39.6227C48.267 39.5388 48.3927 39.4969 48.5605 39.4969Z" fill="#131544" />
<path d="M60.3844 28.7227C61.5585 28.7227 62.6487 28.9323 63.5712 29.3097C64.5357 29.687 65.3324 30.2321 66.0033 30.9029C66.6742 31.6157 67.2194 32.4543 67.5548 33.4606C67.9322 34.4669 68.0999 35.599 68.0999 36.8149C68.0999 38.0728 67.9322 39.2048 67.5548 40.2111C67.1774 41.2174 66.6742 42.056 66.0033 42.7688C65.3324 43.4816 64.4937 44.0266 63.5712 44.404C62.6068 44.7814 61.5585 44.991 60.3844 44.991C59.2102 44.991 58.12 44.7814 57.1555 44.404C56.1911 44.0266 55.3525 43.4816 54.6815 42.7688C54.0106 42.056 53.4655 41.2174 53.0881 40.2111C52.7107 39.2048 52.543 38.0728 52.543 36.8149C52.543 35.557 52.7107 34.4669 53.0881 33.4606C53.4655 32.4543 53.9687 31.6157 54.6815 30.9029C55.3525 30.1902 56.1911 29.687 57.1555 29.3097C58.12 28.9323 59.2102 28.7227 60.3844 28.7227ZM60.3844 42.056C61.6843 42.056 62.6487 41.6367 63.2777 40.7562C63.9067 39.8757 64.2421 38.5759 64.2421 36.8988C64.2421 35.2216 63.9067 33.9218 63.2777 32.9994C62.6487 32.1189 61.6843 31.6577 60.3844 31.6577C59.0425 31.6577 58.0781 32.1189 57.4491 32.9994C56.8201 33.8799 56.4846 35.1797 56.4846 36.8568C56.4846 38.534 56.8201 39.8338 57.4491 40.7143C58.0781 41.5948 59.0425 42.056 60.3844 42.056Z" fill="#131544" />
<path d="M71.1211 44.7394V28.9742H73.4274C73.9306 28.9742 74.2241 29.1839 74.3918 29.6451L74.6434 30.9029C74.9789 30.5675 75.3143 30.274 75.6498 30.0224C75.9853 29.7709 76.3627 29.5193 76.782 29.3516C77.1594 29.1419 77.5787 29.0162 78.04 28.8904C78.5012 28.8065 78.9625 28.7227 79.5076 28.7227C80.3463 28.7227 81.143 28.8484 81.8139 29.1419C82.4848 29.4354 83.0299 29.8547 83.4912 30.3579C83.9524 30.903 84.2879 31.5319 84.4976 32.2447C84.7072 32.9575 84.833 33.796 84.833 34.6765V44.6975H81.0591V34.6765C81.0591 33.7122 80.8494 32.9575 80.3882 32.4543C79.9269 31.9092 79.256 31.6577 78.3754 31.6577C77.7045 31.6577 77.1174 31.8254 76.5304 32.1189C75.9433 32.4124 75.3982 32.8317 74.895 33.3348V44.7394H71.1211Z" fill="#131544" />
<path d="M88.5664 44.7394V28.9742H90.8727C91.3759 28.9742 91.6694 29.1839 91.8371 29.6451L92.0887 30.9029C92.4242 30.5675 92.7597 30.274 93.0951 30.0224C93.4306 29.7709 93.808 29.5193 94.2273 29.3516C94.6047 29.1419 95.024 29.0162 95.4853 28.8904C95.9465 28.8065 96.4078 28.7227 96.9529 28.7227C97.7916 28.7227 98.5883 28.8484 99.2592 29.1419C99.9301 29.4354 100.475 29.8547 100.936 30.3579C101.398 30.903 101.733 31.5319 101.943 32.2447C102.153 32.9575 102.278 33.796 102.278 34.6765V44.6975H98.5044V34.6765C98.5044 33.7122 98.2948 32.9575 97.8335 32.4543C97.3722 31.9092 96.7013 31.6577 95.8207 31.6577C95.1498 31.6577 94.5628 31.8254 93.9757 32.1189C93.3886 32.4124 92.8435 32.8317 92.3403 33.3348V44.7394H88.5664Z" fill="#131544" />
<path d="M112.509 28.7227C113.515 28.7227 114.396 28.8904 115.234 29.1839C116.073 29.5193 116.786 29.9805 117.373 30.5675C117.96 31.1965 118.463 31.9092 118.799 32.7897C119.134 33.6702 119.302 34.6765 119.302 35.8086C119.302 36.1021 119.302 36.3537 119.26 36.5214C119.218 36.731 119.176 36.8568 119.134 36.9826C119.05 37.1084 118.966 37.1503 118.883 37.1923C118.757 37.2342 118.631 37.2761 118.463 37.2761H108.735C108.861 38.9113 109.28 40.0853 110.035 40.8401C110.79 41.5948 111.796 41.9721 113.054 41.9721C113.683 41.9721 114.186 41.8883 114.647 41.7625C115.109 41.6367 115.486 41.469 115.821 41.3013C116.157 41.1336 116.45 40.9658 116.702 40.8401C116.954 40.7143 117.205 40.6304 117.415 40.6304C117.583 40.6304 117.708 40.6723 117.834 40.7143C117.96 40.7562 118.044 40.882 118.128 40.9658L119.218 42.3495C118.799 42.8526 118.337 43.2719 117.792 43.5654C117.289 43.9009 116.744 44.1524 116.157 44.3621C115.57 44.5717 115.025 44.6975 114.438 44.7814C113.851 44.8652 113.264 44.9071 112.718 44.9071C111.628 44.9071 110.622 44.7394 109.657 44.3621C108.735 43.9847 107.896 43.4816 107.183 42.7688C106.471 42.056 105.925 41.1755 105.548 40.1273C105.129 39.079 104.961 37.8631 104.961 36.4795C104.961 35.3893 105.129 34.383 105.464 33.4606C105.8 32.4962 106.303 31.6996 106.974 30.9868C107.603 30.274 108.399 29.7289 109.364 29.3097C110.286 28.9323 111.335 28.7227 112.509 28.7227ZM112.593 31.448C111.502 31.448 110.622 31.7415 109.993 32.3705C109.364 32.9994 108.986 33.8799 108.777 35.012H115.905C115.905 34.5088 115.821 34.0476 115.696 33.6283C115.57 33.209 115.36 32.8317 115.067 32.4962C114.773 32.1608 114.438 31.9092 114.018 31.7415C113.641 31.5319 113.18 31.448 112.593 31.448Z" fill="#131544" />
<path d="M133.471 32.3275C133.345 32.4533 133.261 32.5791 133.135 32.6629C133.01 32.7468 132.884 32.7887 132.674 32.7887C132.464 32.7887 132.297 32.7468 132.087 32.621C131.919 32.4952 131.668 32.3694 131.416 32.2017C131.165 32.034 130.871 31.9082 130.494 31.7824C130.158 31.6566 129.697 31.6147 129.194 31.6147C128.523 31.6147 127.936 31.7405 127.433 31.9921C126.929 32.2436 126.51 32.5791 126.175 33.0403C125.839 33.5015 125.588 34.0466 125.42 34.6755C125.252 35.3044 125.168 36.0591 125.168 36.8558C125.168 37.6944 125.252 38.4491 125.42 39.078C125.588 39.7489 125.839 40.2939 126.175 40.7132C126.51 41.1744 126.929 41.5099 127.391 41.7195C127.852 41.9292 128.397 42.0549 129.026 42.0549C129.613 42.0549 130.116 41.9711 130.494 41.8453C130.871 41.6776 131.165 41.5518 131.458 41.3422C131.71 41.1744 131.919 41.0067 132.129 40.839C132.339 40.6713 132.548 40.6294 132.758 40.6294C133.052 40.6294 133.303 40.7552 133.429 40.9648L134.519 42.3484C134.1 42.8516 133.639 43.2709 133.135 43.5644C132.632 43.8998 132.129 44.1514 131.626 44.361C131.081 44.5707 130.536 44.6965 129.99 44.7803C129.445 44.8642 128.858 44.9061 128.313 44.9061C127.349 44.9061 126.426 44.7384 125.546 44.361C124.665 43.9837 123.952 43.4805 123.281 42.7677C122.652 42.0549 122.149 41.2164 121.772 40.2101C121.394 39.2038 121.227 38.0717 121.227 36.7719C121.227 35.5979 121.394 34.5497 121.73 33.5434C122.065 32.5371 122.568 31.6986 123.197 30.9858C123.826 30.273 124.623 29.686 125.588 29.3086C126.552 28.8893 127.642 28.6797 128.858 28.6797C130.032 28.6797 131.081 28.8893 131.961 29.2667C132.842 29.644 133.639 30.1891 134.351 30.9019L133.471 32.3275Z" fill="#131544" />
<path d="M142.24 44.9904C140.898 44.9904 139.849 44.6131 139.095 43.8164C138.34 43.0617 138.004 41.9716 138.004 40.6298V31.8248H136.411C136.201 31.8248 136.034 31.741 135.866 31.6152C135.698 31.4894 135.656 31.2797 135.656 31.0282V29.5187L138.172 29.0994L138.969 24.7808C139.011 24.5711 139.095 24.4034 139.262 24.3196C139.43 24.1938 139.598 24.1519 139.808 24.1519H141.778V29.0994H145.93V31.7829H141.778V40.3363C141.778 40.8395 141.904 41.2168 142.156 41.4684C142.407 41.7619 142.743 41.8877 143.12 41.8877C143.372 41.8877 143.54 41.8458 143.707 41.8038C143.875 41.7619 144.001 41.6781 144.127 41.6361C144.252 41.5942 144.336 41.5103 144.462 41.4684C144.546 41.4265 144.63 41.3846 144.756 41.3846C144.881 41.3846 144.965 41.4265 145.049 41.4684C145.133 41.5103 145.217 41.5942 145.259 41.72L146.391 43.5649C145.846 44.0261 145.217 44.3615 144.504 44.6131C143.749 44.8646 142.994 44.9904 142.24 44.9904Z" fill="#131544" />
<path d="M155.446 28.7227C156.453 28.7227 157.333 28.8904 158.172 29.1839C159.011 29.5193 159.723 29.9805 160.31 30.5675C160.898 31.1965 161.401 31.9092 161.736 32.7897C162.072 33.6702 162.239 34.6765 162.239 35.8086C162.239 36.1021 162.239 36.3537 162.197 36.5214C162.156 36.731 162.114 36.8568 162.072 36.9826C161.988 37.1084 161.904 37.1503 161.82 37.1923C161.694 37.2342 161.568 37.2761 161.401 37.2761H151.672C151.798 38.9113 152.217 40.0853 152.972 40.8401C153.727 41.5948 154.733 41.9721 155.991 41.9721C156.62 41.9721 157.124 41.8883 157.585 41.7625C158.046 41.6367 158.424 41.469 158.759 41.3013C159.094 41.1336 159.388 40.9658 159.64 40.8401C159.891 40.7143 160.143 40.6304 160.352 40.6304C160.52 40.6304 160.646 40.6723 160.772 40.7143C160.898 40.7562 160.981 40.882 161.065 40.9658L162.155 42.3495C161.736 42.8526 161.275 43.2719 160.73 43.5654C160.227 43.9009 159.681 44.1524 159.094 44.3621C158.507 44.5717 157.962 44.6975 157.375 44.7814C156.788 44.8652 156.201 44.9071 155.656 44.9071C154.566 44.9071 153.559 44.7394 152.595 44.3621C151.672 43.9847 150.834 43.4816 150.121 42.7688C149.408 42.056 148.863 41.1755 148.486 40.1273C148.066 39.079 147.898 37.8631 147.898 36.4795C147.898 35.3893 148.066 34.383 148.402 33.4606C148.737 32.4962 149.24 31.6996 149.911 30.9868C150.54 30.274 151.337 29.7289 152.301 29.3097C153.224 28.9323 154.272 28.7227 155.446 28.7227ZM155.53 31.448C154.44 31.448 153.559 31.7415 152.93 32.3705C152.301 32.9994 151.924 33.8799 151.714 35.012H158.843C158.843 34.5088 158.759 34.0476 158.633 33.6283C158.507 33.209 158.298 32.8317 158.004 32.4962C157.711 32.1608 157.375 31.9092 156.956 31.7415C156.578 31.5319 156.117 31.448 155.53 31.448Z" fill="#131544" />
<path d="M176.456 44.7389C175.953 44.7389 175.66 44.5293 175.492 44.0681L175.198 42.5586C174.863 42.936 174.527 43.2714 174.15 43.5649C173.773 43.8584 173.395 44.11 172.976 44.3196C172.557 44.5293 172.095 44.697 171.634 44.8228C171.173 44.9486 170.628 44.9905 170.083 44.9905C169.202 44.9905 168.447 44.8228 167.734 44.4454C167.021 44.0681 166.392 43.5649 165.889 42.894C165.386 42.2232 164.967 41.3846 164.673 40.3783C164.38 39.372 164.254 38.24 164.254 36.9402C164.254 35.7662 164.422 34.676 164.715 33.6697C165.051 32.6634 165.47 31.7829 166.099 31.0701C166.728 30.3574 167.399 29.7704 168.237 29.3511C169.076 28.9318 169.999 28.7221 171.047 28.7221C171.928 28.7221 172.682 28.8479 173.311 29.1414C173.94 29.4349 174.485 29.8123 174.989 30.2735V21.9297H178.763V44.7389H176.456ZM171.382 41.9716C172.179 41.9716 172.85 41.8039 173.395 41.4685C173.94 41.133 174.485 40.6718 174.947 40.0848V33.0408C174.527 32.5377 174.066 32.1603 173.563 31.9507C173.06 31.741 172.515 31.6152 171.928 31.6152C171.341 31.6152 170.837 31.741 170.376 31.9507C169.915 32.1603 169.495 32.4957 169.202 32.915C168.866 33.3343 168.615 33.9213 168.447 34.5922C168.279 35.263 168.196 36.0597 168.196 36.9821C168.196 37.9045 168.279 38.7012 168.405 39.3301C168.531 39.959 168.783 40.5041 169.034 40.8815C169.328 41.3008 169.663 41.5943 170.041 41.762C170.46 41.8458 170.921 41.9716 171.382 41.9716Z" fill="#131544" />
<path d="M201.823 44.7403H197.672V35.0548H187.272V44.7403H183.121V22.5181H187.272V32.0778H197.672V22.5181H201.823V44.7403Z" fill="#131544" />
<path d="M220.272 22.5181V25.8304H210.418V31.994H218.217V35.1805H210.46V41.4698H220.314V44.7822H206.309V22.5181H220.272Z" fill="#131544" />
<path d="M98.3713 57.1493C98.4551 57.1493 98.4971 57.1913 98.5809 57.2332L99.1261 57.8202C98.8325 58.1976 98.4551 58.4491 98.0358 58.6588C97.6165 58.8684 97.1133 58.9523 96.4843 58.9523C95.9392 58.9523 95.4779 58.8684 95.0586 58.6588C94.6393 58.4911 94.2619 58.2395 93.9684 57.9041C93.6748 57.5686 93.4232 57.1913 93.2555 56.73C93.0878 56.2688 93.0039 55.7657 93.0039 55.2625C93.0039 54.7175 93.0878 54.2143 93.2555 53.795C93.4232 53.3338 93.6748 52.9565 94.0103 52.621C94.3458 52.2856 94.7231 52.034 95.1844 51.8663C95.6457 51.6986 96.1488 51.6147 96.694 51.6147C97.2391 51.6147 97.7004 51.6986 98.0777 51.8663C98.4551 52.034 98.8325 52.2437 99.1261 52.5372L98.6648 53.1661C98.6229 53.208 98.6229 53.25 98.5809 53.25C98.539 53.2919 98.4971 53.2919 98.4132 53.2919C98.3293 53.2919 98.2455 53.25 98.1616 53.208C98.0778 53.1661 97.9939 53.0823 97.8681 52.9984C97.7423 52.9145 97.5746 52.8726 97.4068 52.7888C97.2391 52.7049 96.9875 52.7049 96.694 52.7049C96.3585 52.7049 96.0231 52.7468 95.7715 52.8726C95.4779 52.9984 95.2263 53.1661 95.0586 53.3758C94.8489 53.5854 94.6812 53.8789 94.5973 54.1724C94.5135 54.4659 94.4296 54.8433 94.4296 55.2206C94.4296 55.6399 94.4715 55.9753 94.5973 56.3108C94.7231 56.6462 94.8489 56.8978 95.0586 57.1074C95.2683 57.3171 95.4779 57.4848 95.7715 57.6106C96.0231 57.7363 96.3166 57.7783 96.6101 57.7783C96.7778 57.7783 96.9456 57.7783 97.1133 57.7363C97.281 57.7363 97.4068 57.6944 97.5326 57.6525C97.6584 57.6105 97.7842 57.5686 97.8681 57.4848C97.9939 57.4009 98.0777 57.317 98.2035 57.2332C98.2455 57.1913 98.2874 57.1913 98.2874 57.1493C98.2874 57.1913 98.3293 57.1493 98.3713 57.1493Z" fill="#131544" />
<path d="M102.188 53.6685C102.565 53.6685 102.901 53.7104 103.236 53.8362C103.53 53.962 103.823 54.1297 104.033 54.3393C104.243 54.549 104.41 54.8425 104.536 55.1779C104.662 55.5133 104.704 55.8488 104.704 56.268C104.704 56.6873 104.662 57.0228 104.536 57.3582C104.41 57.6936 104.243 57.9452 104.033 58.1968C103.823 58.4064 103.53 58.616 103.236 58.7418C102.943 58.8676 102.565 58.9095 102.188 58.9095C101.81 58.9095 101.475 58.8676 101.14 58.7418C100.846 58.616 100.552 58.4483 100.343 58.1968C100.133 57.9871 99.9654 57.6936 99.8396 57.3582C99.7138 57.0228 99.6719 56.6873 99.6719 56.268C99.6719 55.8488 99.7138 55.5133 99.8396 55.1779C99.9654 54.8425 100.133 54.5909 100.343 54.3393C100.552 54.1297 100.846 53.92 101.14 53.8362C101.475 53.7523 101.81 53.6685 102.188 53.6685ZM102.188 57.9871C102.607 57.9871 102.943 57.8613 103.152 57.5678C103.362 57.2743 103.446 56.855 103.446 56.31C103.446 55.7649 103.362 55.3456 103.152 55.0521C102.943 54.7586 102.649 54.6328 102.188 54.6328C101.769 54.6328 101.433 54.7586 101.223 55.0521C101.014 55.3456 100.93 55.7649 100.93 56.31C100.93 56.855 101.014 57.2743 101.223 57.5678C101.475 57.8613 101.769 57.9871 102.188 57.9871Z" fill="#131544" />
<path d="M105.707 58.8687V53.7534H106.462C106.63 53.7534 106.713 53.8372 106.755 53.963L106.839 54.3823C106.923 54.2565 107.049 54.1726 107.175 54.0888C107.3 54.0049 107.426 53.9211 107.552 53.8791C107.678 53.8372 107.804 53.7534 107.971 53.7534C108.139 53.7534 108.265 53.7114 108.433 53.7114C108.726 53.7114 108.978 53.7534 109.187 53.8372C109.397 53.9211 109.565 54.0469 109.733 54.2565C109.9 54.4661 109.984 54.6339 110.068 54.8854C110.152 55.137 110.194 55.3886 110.194 55.6821V58.9525H108.978V55.5982C108.978 55.3047 108.894 55.0531 108.768 54.8854C108.642 54.7177 108.391 54.6339 108.097 54.6339C107.888 54.6339 107.678 54.6758 107.51 54.7596C107.342 54.8435 107.133 54.9693 106.965 55.137V58.8267H105.707V58.8687Z" fill="#131544" />
<path d="M111.375 58.8687V53.7534H112.13C112.298 53.7534 112.381 53.8372 112.423 53.963L112.507 54.3823C112.591 54.2565 112.717 54.1726 112.843 54.0888C112.968 54.0049 113.094 53.9211 113.22 53.8791C113.346 53.8372 113.472 53.7534 113.639 53.7534C113.807 53.7534 113.933 53.7114 114.101 53.7114C114.394 53.7114 114.646 53.7534 114.855 53.8372C115.065 53.9211 115.233 54.0469 115.401 54.2565C115.568 54.4661 115.652 54.6339 115.736 54.8854C115.82 55.137 115.862 55.3886 115.862 55.6821V58.9525H114.646V55.5982C114.646 55.3047 114.562 55.0531 114.436 54.8854C114.31 54.7177 114.059 54.6339 113.765 54.6339C113.555 54.6339 113.346 54.6758 113.178 54.7596C113.01 54.8435 112.801 54.9693 112.633 55.137V58.8267H111.375V58.8687Z" fill="#131544" />
<path d="M119.131 53.6685C119.467 53.6685 119.76 53.7104 120.012 53.8362C120.263 53.92 120.515 54.0877 120.725 54.2974C120.934 54.507 121.06 54.7167 121.186 55.0102C121.312 55.3037 121.354 55.6391 121.354 55.9745C121.354 56.0584 121.354 56.1423 121.354 56.2261C121.354 56.268 121.312 56.3519 121.312 56.3519C121.27 56.3938 121.27 56.3938 121.228 56.4358C121.186 56.4358 121.144 56.4777 121.102 56.4777H117.957C117.999 57.0228 118.125 57.4001 118.377 57.6517C118.628 57.9033 118.964 58.029 119.341 58.029C119.551 58.029 119.718 57.9871 119.844 57.9452C119.97 57.9033 120.096 57.8613 120.222 57.7775C120.347 57.7355 120.431 57.6517 120.515 57.6098C120.599 57.5678 120.683 57.5259 120.767 57.5259C120.809 57.5259 120.851 57.5259 120.892 57.5678C120.934 57.6098 120.976 57.6098 120.976 57.6517L121.354 58.1129C121.228 58.2806 121.06 58.4064 120.892 58.5322C120.725 58.658 120.557 58.7418 120.347 58.7838C120.18 58.8676 119.97 58.9095 119.802 58.9095C119.593 58.9515 119.425 58.9515 119.257 58.9515C118.922 58.9515 118.586 58.9096 118.251 58.7838C117.957 58.658 117.664 58.4903 117.454 58.2806C117.244 58.071 117.035 57.7775 116.909 57.442C116.783 57.1066 116.699 56.6873 116.699 56.268C116.699 55.9326 116.741 55.5972 116.867 55.3037C116.993 55.0102 117.16 54.7167 117.37 54.507C117.58 54.2974 117.831 54.0877 118.125 53.962C118.418 53.7523 118.754 53.6685 119.131 53.6685ZM119.173 54.549C118.796 54.549 118.544 54.6328 118.335 54.8425C118.125 55.0521 117.999 55.3456 117.957 55.723H120.263C120.263 55.5553 120.222 55.4295 120.18 55.2617C120.138 55.136 120.054 55.0102 119.97 54.8844C119.886 54.7586 119.76 54.6747 119.634 54.6328C119.509 54.5909 119.341 54.549 119.173 54.549Z" fill="#131544" />
<path d="M125.963 54.8426C125.921 54.8845 125.879 54.9264 125.837 54.9684C125.795 55.0103 125.753 55.0103 125.669 55.0103C125.586 55.0103 125.544 55.0103 125.502 54.9684C125.46 54.9264 125.376 54.8845 125.292 54.8426C125.208 54.8007 125.124 54.7587 124.999 54.7168C124.873 54.6749 124.747 54.6749 124.579 54.6749C124.37 54.6749 124.16 54.7168 123.992 54.8007C123.824 54.8845 123.699 55.0103 123.573 55.1361C123.447 55.2619 123.363 55.4715 123.321 55.6812C123.279 55.8908 123.237 56.1424 123.237 56.3939C123.237 56.6455 123.279 56.8971 123.321 57.1067C123.363 57.3164 123.447 57.4841 123.573 57.6518C123.699 57.7776 123.824 57.9034 123.992 57.9872C124.16 58.0711 124.328 58.113 124.537 58.113C124.747 58.113 124.873 58.0711 124.999 58.0292C125.124 57.9872 125.208 57.9453 125.292 57.8615C125.376 57.7776 125.46 57.7357 125.502 57.6937C125.544 57.6518 125.628 57.6099 125.711 57.6099C125.795 57.6099 125.879 57.6518 125.921 57.7357L126.257 58.1969C126.131 58.3646 125.963 58.4904 125.795 58.6162C125.628 58.742 125.46 58.8258 125.292 58.8677C125.124 58.9516 124.957 58.9935 124.747 58.9935C124.579 59.0355 124.37 59.0355 124.202 59.0355C123.866 59.0355 123.573 58.9935 123.321 58.8677C123.028 58.742 122.818 58.5742 122.608 58.3646C122.399 58.155 122.231 57.8615 122.105 57.526C121.979 57.1906 121.938 56.8132 121.938 56.3939C121.938 56.0166 121.979 55.6812 122.105 55.3457C122.231 55.0103 122.357 54.7587 122.566 54.5072C122.776 54.2556 123.028 54.0879 123.363 53.9621C123.657 53.8363 124.034 53.7524 124.412 53.7524C124.789 53.7524 125.124 53.7944 125.418 53.9202C125.711 54.0459 125.963 54.2137 126.173 54.4652L125.963 54.8426Z" fill="#131544" />
<path d="M128.771 58.9522C128.31 58.9522 127.975 58.8264 127.765 58.5748C127.513 58.3233 127.388 57.9878 127.388 57.5266V54.6755H126.884C126.801 54.6755 126.759 54.6335 126.717 54.5916C126.675 54.5497 126.633 54.4658 126.633 54.382V53.9207L127.471 53.795L127.723 52.4113C127.723 52.3274 127.765 52.2855 127.807 52.2436C127.849 52.2017 127.933 52.2017 127.975 52.2017H128.604V53.795H129.945V54.6755H128.604V57.4427C128.604 57.6105 128.646 57.7363 128.729 57.8201C128.813 57.904 128.897 57.9459 129.065 57.9459C129.149 57.9459 129.191 57.9459 129.275 57.904C129.316 57.904 129.358 57.862 129.4 57.862C129.442 57.862 129.484 57.8201 129.484 57.8201C129.526 57.8201 129.526 57.7782 129.568 57.7782C129.61 57.7782 129.652 57.7782 129.652 57.8201C129.694 57.8201 129.694 57.862 129.736 57.904L130.113 58.491C129.945 58.6587 129.736 58.7425 129.484 58.8264C129.275 58.9103 129.023 58.9522 128.771 58.9522Z" fill="#131544" />
<path d="M132.462 52.244C132.462 52.3698 132.42 52.4536 132.378 52.5375C132.336 52.6213 132.294 52.7052 132.21 52.7891C132.126 52.8729 132.042 52.9148 131.958 52.9568C131.875 52.9987 131.749 52.9987 131.665 52.9987C131.539 52.9987 131.455 52.9987 131.371 52.9568C131.288 52.9148 131.204 52.8729 131.12 52.7891C131.036 52.7052 130.994 52.6213 130.952 52.5375C130.91 52.4536 130.91 52.3278 130.91 52.244C130.91 52.1182 130.91 52.0343 130.952 51.9505C130.994 51.8666 131.036 51.7828 131.12 51.6989C131.204 51.615 131.288 51.5731 131.371 51.5312C131.455 51.4893 131.581 51.4893 131.665 51.4893C131.791 51.4893 131.875 51.4893 131.958 51.5312C132.042 51.5731 132.126 51.615 132.21 51.6989C132.294 51.7828 132.336 51.8666 132.378 51.9505C132.42 52.0343 132.462 52.1601 132.462 52.244ZM132.294 53.7534V58.8687H131.078V53.7534H132.294Z" fill="#131544" />
<path d="M133.68 58.8687V53.7534H134.434C134.602 53.7534 134.686 53.8372 134.728 53.963L134.812 54.3823C134.896 54.2565 135.022 54.1726 135.147 54.0888C135.273 54.0049 135.399 53.9211 135.525 53.8791C135.651 53.8372 135.776 53.7534 135.944 53.7534C136.112 53.7534 136.238 53.7114 136.405 53.7114C136.699 53.7114 136.95 53.7534 137.16 53.8372C137.37 53.9211 137.537 54.0469 137.705 54.2565C137.873 54.4661 137.957 54.6339 138.041 54.8854C138.125 55.137 138.166 55.3886 138.166 55.6821V58.9525H136.95V55.5982C136.95 55.3047 136.867 55.0531 136.741 54.8854C136.615 54.7177 136.363 54.6339 136.07 54.6339C135.86 54.6339 135.651 54.6758 135.483 54.7596C135.315 54.8435 135.105 54.9693 134.938 55.137V58.8267H133.68V58.8687Z" fill="#131544" />
<path d="M141.101 53.6685C141.311 53.6685 141.521 53.7104 141.73 53.7523C141.94 53.7942 142.108 53.8781 142.275 53.962H143.743V54.4232C143.743 54.507 143.743 54.549 143.701 54.5909C143.659 54.6328 143.575 54.6748 143.491 54.6748L143.03 54.7586C143.072 54.8425 143.072 54.9263 143.114 55.0521C143.114 55.136 143.156 55.2617 143.156 55.3456C143.156 55.5972 143.114 55.8068 142.988 56.0165C142.863 56.2261 142.737 56.3938 142.569 56.5196C142.401 56.6454 142.192 56.7712 141.94 56.855C141.688 56.9389 141.437 56.9808 141.143 56.9808C140.934 56.9808 140.766 56.9808 140.598 56.9389C140.43 57.0228 140.347 57.1485 140.347 57.2743C140.347 57.3582 140.388 57.442 140.472 57.484C140.556 57.5259 140.682 57.5678 140.85 57.5678C141.017 57.5678 141.185 57.6098 141.395 57.6098C141.605 57.6098 141.772 57.6098 141.982 57.6517C142.192 57.6517 142.401 57.6936 142.569 57.7355C142.779 57.7775 142.946 57.8613 143.114 57.9452C143.282 58.029 143.408 58.1548 143.491 58.3225C143.575 58.4903 143.617 58.658 143.617 58.9095C143.617 59.1192 143.575 59.3708 143.45 59.5804C143.324 59.7901 143.198 59.9997 142.946 60.1674C142.737 60.3351 142.485 60.4609 142.192 60.5867C141.898 60.6706 141.521 60.7544 141.143 60.7544C140.766 60.7544 140.43 60.7125 140.137 60.6286C139.843 60.5448 139.634 60.4609 139.424 60.3351C139.214 60.2093 139.089 60.0836 139.005 59.9158C138.921 59.7481 138.879 59.5804 138.879 59.4127C138.879 59.1611 138.963 58.9515 139.089 58.8257C139.214 58.658 139.424 58.5322 139.718 58.4483C139.592 58.3645 139.508 58.2806 139.424 58.1548C139.34 58.029 139.298 57.9033 139.298 57.6936C139.298 57.6098 139.298 57.5259 139.34 57.442C139.382 57.3582 139.424 57.2743 139.466 57.1905C139.508 57.1066 139.592 57.0228 139.676 56.9808C139.759 56.897 139.843 56.855 139.969 56.7712C139.718 56.6454 139.508 56.4358 139.34 56.2261C139.172 56.0165 139.131 55.723 139.131 55.4295C139.131 55.1779 139.172 54.9682 139.298 54.7586C139.424 54.549 139.55 54.3812 139.718 54.2555C139.885 54.1297 140.095 54.0039 140.347 53.92C140.556 53.7104 140.808 53.6685 141.101 53.6685ZM142.443 59.0773C142.443 58.9934 142.401 58.9095 142.359 58.8257C142.317 58.7418 142.234 58.6999 142.108 58.658C141.982 58.616 141.898 58.6161 141.73 58.5741C141.605 58.5741 141.437 58.5322 141.311 58.5322C141.143 58.5322 141.017 58.5322 140.85 58.5322C140.682 58.5322 140.514 58.5322 140.388 58.4903C140.263 58.5741 140.137 58.658 140.053 58.7418C139.969 58.8257 139.927 58.9515 139.927 59.1192C139.927 59.203 139.969 59.2869 140.011 59.3708C140.053 59.4546 140.137 59.4966 140.221 59.5804C140.305 59.6223 140.43 59.6643 140.598 59.7062C140.766 59.7481 140.934 59.7481 141.185 59.7481C141.395 59.7481 141.605 59.7481 141.772 59.7062C141.94 59.6643 142.066 59.6223 142.192 59.5385C142.317 59.4965 142.359 59.4127 142.443 59.3288C142.443 59.2869 142.443 59.1611 142.443 59.0773ZM141.101 56.1842C141.269 56.1842 141.395 56.1842 141.521 56.1423C141.646 56.1003 141.73 56.0584 141.814 55.9745C141.898 55.8907 141.94 55.8068 141.982 55.723C142.024 55.6391 142.024 55.5133 142.024 55.3875C142.024 55.136 141.94 54.9263 141.814 54.8005C141.646 54.6328 141.437 54.5909 141.143 54.5909C140.85 54.5909 140.598 54.6748 140.472 54.8005C140.347 54.9263 140.263 55.136 140.263 55.3875C140.263 55.5133 140.263 55.6391 140.305 55.723C140.347 55.8068 140.388 55.9326 140.472 55.9745C140.556 56.0584 140.64 56.1003 140.766 56.1423C140.808 56.1423 140.976 56.1842 141.101 56.1842Z" fill="#131544" />
<path d="M150.029 54.8426C149.987 54.8845 149.946 54.9264 149.904 54.9684C149.862 55.0103 149.82 55.0103 149.736 55.0103C149.652 55.0103 149.61 55.0103 149.568 54.9684C149.526 54.9264 149.442 54.8845 149.359 54.8426C149.275 54.8007 149.191 54.7587 149.065 54.7168C148.939 54.6749 148.813 54.6749 148.646 54.6749C148.436 54.6749 148.226 54.7168 148.059 54.8007C147.891 54.8845 147.765 55.0103 147.639 55.1361C147.513 55.2619 147.43 55.4715 147.388 55.6812C147.346 55.8908 147.304 56.1424 147.304 56.3939C147.304 56.6455 147.346 56.8971 147.388 57.1067C147.43 57.3164 147.513 57.4841 147.639 57.6518C147.765 57.7776 147.891 57.9034 148.059 57.9872C148.226 58.0711 148.394 58.113 148.604 58.113C148.813 58.113 148.939 58.0711 149.065 58.0292C149.191 57.9872 149.275 57.9453 149.359 57.8615C149.442 57.7776 149.526 57.7357 149.568 57.6937C149.61 57.6518 149.694 57.6099 149.778 57.6099C149.862 57.6099 149.946 57.6518 149.987 57.7357L150.323 58.1969C150.197 58.3646 150.029 58.4904 149.862 58.6162C149.694 58.742 149.526 58.8258 149.359 58.8677C149.191 58.9516 149.023 58.9935 148.813 58.9935C148.646 59.0355 148.436 59.0355 148.268 59.0355C147.933 59.0355 147.639 58.9935 147.388 58.8677C147.094 58.742 146.884 58.5742 146.675 58.3646C146.465 58.155 146.297 57.8615 146.172 57.526C146.046 57.1906 146.004 56.8132 146.004 56.3939C146.004 56.0166 146.046 55.6812 146.172 55.3457C146.297 55.0103 146.423 54.7587 146.633 54.5072C146.843 54.2556 147.094 54.0879 147.43 53.9621C147.723 53.8363 148.101 53.7524 148.478 53.7524C148.855 53.7524 149.191 53.7944 149.484 53.9202C149.778 54.0459 150.029 54.2137 150.239 54.4652L150.029 54.8426Z" fill="#131544" />
<path d="M153.344 53.6685C153.721 53.6685 154.057 53.7104 154.392 53.8362C154.686 53.962 154.979 54.1297 155.189 54.3393C155.399 54.549 155.567 54.8425 155.692 55.1779C155.818 55.5133 155.86 55.8488 155.86 56.268C155.86 56.6873 155.818 57.0228 155.692 57.3582C155.567 57.6936 155.399 57.9452 155.189 58.1968C154.979 58.4064 154.686 58.616 154.392 58.7418C154.099 58.8676 153.721 58.9095 153.344 58.9095C152.967 58.9095 152.631 58.8676 152.296 58.7418C152.002 58.616 151.709 58.4483 151.499 58.1968C151.289 57.9871 151.122 57.6936 150.996 57.3582C150.87 57.0228 150.828 56.6873 150.828 56.268C150.828 55.8488 150.87 55.5133 150.996 55.1779C151.122 54.8425 151.289 54.5909 151.499 54.3393C151.709 54.1297 152.002 53.92 152.296 53.8362C152.631 53.7523 152.967 53.6685 153.344 53.6685ZM153.344 57.9871C153.763 57.9871 154.099 57.8613 154.309 57.5678C154.518 57.2743 154.602 56.855 154.602 56.31C154.602 55.7649 154.518 55.3456 154.309 55.0521C154.099 54.7586 153.805 54.6328 153.344 54.6328C152.925 54.6328 152.589 54.7586 152.38 55.0521C152.17 55.3456 152.086 55.7649 152.086 56.31C152.086 56.855 152.17 57.2743 152.38 57.5678C152.589 57.8613 152.925 57.9871 153.344 57.9871Z" fill="#131544" />
<path d="M158.165 51.4463V58.8677H156.949V51.4463H158.165Z" fill="#131544" />
<path d="M160.853 51.4463V58.8677H159.637V51.4463H160.853Z" fill="#131544" />
<path d="M164.374 53.6685C164.709 53.6685 165.002 53.7104 165.254 53.8362C165.506 53.92 165.757 54.0877 165.967 54.2974C166.177 54.507 166.302 54.7167 166.428 55.0102C166.554 55.3037 166.596 55.6391 166.596 55.9745C166.596 56.0584 166.596 56.1423 166.596 56.2261C166.596 56.268 166.554 56.3519 166.554 56.3519C166.512 56.3938 166.512 56.3938 166.47 56.4358C166.428 56.4358 166.386 56.4777 166.344 56.4777H163.199C163.241 57.0228 163.367 57.4001 163.619 57.6517C163.87 57.9033 164.206 58.029 164.583 58.029C164.793 58.029 164.961 57.9871 165.086 57.9452C165.212 57.9033 165.338 57.8613 165.464 57.7775C165.59 57.7355 165.673 57.6517 165.757 57.6098C165.841 57.5678 165.925 57.5259 166.009 57.5259C166.051 57.5259 166.093 57.5259 166.135 57.5678C166.177 57.5678 166.219 57.6098 166.219 57.6517L166.596 58.1129C166.47 58.2806 166.302 58.4064 166.135 58.5322C165.967 58.658 165.799 58.7418 165.59 58.7838C165.422 58.8676 165.212 58.9095 165.044 58.9095C164.877 58.9095 164.667 58.9515 164.499 58.9515C164.164 58.9515 163.828 58.9096 163.493 58.7838C163.199 58.658 162.906 58.4903 162.696 58.2806C162.487 58.071 162.277 57.7775 162.151 57.442C162.025 57.1066 161.941 56.6873 161.941 56.268C161.941 55.9326 161.983 55.5972 162.109 55.3037C162.235 55.0102 162.403 54.7167 162.612 54.507C162.822 54.2974 163.074 54.0877 163.367 53.962C163.619 53.7523 163.996 53.6685 164.374 53.6685ZM164.374 54.549C163.996 54.549 163.745 54.6328 163.535 54.8425C163.325 55.0521 163.199 55.3456 163.157 55.723H165.464C165.464 55.5553 165.422 55.4295 165.38 55.2617C165.338 55.136 165.254 55.0102 165.17 54.8844C165.086 54.7586 164.961 54.6747 164.835 54.6328C164.709 54.5909 164.583 54.549 164.374 54.549Z" fill="#131544" />
<path d="M169.359 53.6685C169.569 53.6685 169.778 53.7104 169.988 53.7523C170.198 53.7942 170.366 53.8781 170.533 53.962H172.001V54.4232C172.001 54.507 172.001 54.549 171.959 54.5909C171.917 54.6328 171.833 54.6748 171.749 54.6748L171.288 54.7586C171.33 54.8425 171.33 54.9263 171.372 55.0521C171.372 55.136 171.414 55.2617 171.414 55.3456C171.414 55.5972 171.372 55.8068 171.246 56.0165C171.162 56.2261 170.995 56.3938 170.827 56.5196C170.659 56.6454 170.449 56.7712 170.198 56.855C169.946 56.9389 169.695 56.9808 169.401 56.9808C169.191 56.9808 169.024 56.9808 168.856 56.9389C168.688 57.0228 168.604 57.1485 168.604 57.2743C168.604 57.3582 168.646 57.442 168.73 57.484C168.814 57.5259 168.94 57.5678 169.108 57.5678C169.275 57.5678 169.443 57.6098 169.653 57.6098C169.862 57.6098 170.03 57.6098 170.24 57.6517C170.449 57.6517 170.659 57.6936 170.827 57.7355C171.036 57.7775 171.204 57.8613 171.372 57.9452C171.54 58.029 171.665 58.1548 171.749 58.3225C171.833 58.4903 171.875 58.658 171.875 58.9095C171.875 59.1192 171.833 59.3708 171.707 59.5804C171.582 59.7901 171.414 59.9997 171.204 60.1674C170.995 60.3351 170.743 60.4609 170.449 60.5867C170.156 60.6706 169.778 60.7544 169.401 60.7544C169.024 60.7544 168.688 60.7125 168.395 60.6286C168.101 60.5448 167.891 60.4609 167.682 60.3351C167.514 60.2093 167.346 60.0836 167.263 59.9158C167.179 59.7481 167.137 59.5804 167.137 59.4127C167.137 59.1611 167.221 58.9515 167.346 58.8257C167.472 58.658 167.682 58.5322 167.975 58.4483C167.85 58.3645 167.766 58.2806 167.682 58.1548C167.598 58.029 167.556 57.9033 167.556 57.6936C167.556 57.6098 167.556 57.5259 167.598 57.442C167.64 57.3582 167.682 57.2743 167.724 57.1905C167.766 57.1066 167.85 57.0228 167.933 56.9808C168.017 56.897 168.101 56.855 168.227 56.7712C167.975 56.6454 167.766 56.4358 167.598 56.2261C167.43 56.0165 167.388 55.723 167.388 55.4295C167.388 55.1779 167.43 54.9682 167.556 54.7586C167.64 54.549 167.808 54.3812 167.975 54.2555C168.143 54.1297 168.353 54.0039 168.604 53.92C168.772 53.7104 169.066 53.6685 169.359 53.6685ZM170.701 59.0773C170.701 58.9934 170.659 58.9095 170.617 58.8257C170.575 58.7418 170.491 58.6999 170.366 58.658C170.282 58.616 170.156 58.6161 169.988 58.5741C169.862 58.5741 169.695 58.5322 169.569 58.5322C169.443 58.5322 169.275 58.5322 169.108 58.5322C168.94 58.5322 168.772 58.5322 168.646 58.4903C168.52 58.5741 168.395 58.658 168.311 58.7418C168.227 58.8257 168.185 58.9515 168.185 59.1192C168.185 59.203 168.227 59.2869 168.269 59.3708C168.311 59.4546 168.395 59.4966 168.479 59.5804C168.562 59.6223 168.688 59.6643 168.856 59.7062C169.024 59.7481 169.191 59.7481 169.443 59.7481C169.653 59.7481 169.862 59.7481 170.03 59.7062C170.198 59.6643 170.324 59.6223 170.449 59.5385C170.575 59.4965 170.617 59.4127 170.701 59.3288C170.659 59.2869 170.701 59.1611 170.701 59.0773ZM169.359 56.1842C169.527 56.1842 169.653 56.1842 169.778 56.1423C169.904 56.1003 169.988 56.0584 170.072 55.9745C170.156 55.8907 170.198 55.8068 170.24 55.723C170.282 55.6391 170.282 55.5133 170.282 55.3875C170.282 55.136 170.198 54.9263 170.072 54.8005C169.946 54.6748 169.695 54.5909 169.401 54.5909C169.108 54.5909 168.856 54.6748 168.73 54.8005C168.562 54.9683 168.52 55.136 168.52 55.3875C168.52 55.5133 168.52 55.6391 168.562 55.723C168.604 55.8068 168.646 55.9326 168.73 55.9745C168.814 56.0584 168.898 56.1003 169.024 56.1423C169.066 56.1423 169.191 56.1842 169.359 56.1842Z" fill="#131544" />
<path d="M174.854 53.6685C175.189 53.6685 175.483 53.7104 175.735 53.8362C175.986 53.92 176.238 54.0877 176.447 54.2974C176.657 54.507 176.783 54.7167 176.909 55.0102C177.034 55.3037 177.076 55.6391 177.076 55.9745C177.076 56.0584 177.076 56.1423 177.076 56.2261C177.076 56.268 177.034 56.3519 177.034 56.3519C176.993 56.3938 176.993 56.3938 176.951 56.4358C176.909 56.4358 176.867 56.4777 176.825 56.4777H173.68C173.722 57.0228 173.848 57.4001 174.099 57.6517C174.351 57.9033 174.686 58.029 175.064 58.029C175.273 58.029 175.441 57.9871 175.567 57.9452C175.693 57.9033 175.818 57.8613 175.944 57.7775C176.07 57.7355 176.154 57.6517 176.238 57.6098C176.322 57.5678 176.405 57.5259 176.489 57.5259C176.531 57.5259 176.573 57.5259 176.615 57.5678C176.657 57.5678 176.699 57.6098 176.699 57.6517L177.076 58.1129C176.951 58.2806 176.783 58.4064 176.615 58.5322C176.447 58.658 176.28 58.7418 176.07 58.7838C175.902 58.8676 175.693 58.9095 175.525 58.9095C175.357 58.9095 175.147 58.9515 174.98 58.9515C174.644 58.9515 174.309 58.9096 173.973 58.7838C173.68 58.658 173.386 58.4903 173.177 58.2806C172.967 58.071 172.757 57.7775 172.632 57.442C172.506 57.1066 172.422 56.6873 172.422 56.268C172.422 55.9326 172.464 55.5972 172.59 55.3037C172.715 55.0102 172.883 54.7167 173.093 54.507C173.302 54.2974 173.554 54.0877 173.848 53.962C174.099 53.7523 174.477 53.6685 174.854 53.6685ZM174.854 54.549C174.477 54.549 174.225 54.6328 174.015 54.8425C173.806 55.0521 173.68 55.3456 173.638 55.723H175.944C175.944 55.5553 175.902 55.4295 175.86 55.2617C175.818 55.136 175.735 55.0102 175.651 54.8844C175.567 54.7586 175.441 54.6747 175.315 54.6328C175.189 54.5909 175.064 54.549 174.854 54.549Z" fill="#131544" />
<path d="M181.101 54.7587C181.059 54.8007 181.017 54.8426 181.017 54.8845C180.975 54.9264 180.933 54.9264 180.891 54.9264C180.849 54.9264 180.765 54.9264 180.681 54.8845C180.598 54.8426 180.514 54.8007 180.43 54.7587C180.346 54.7168 180.22 54.6749 180.136 54.6329C180.052 54.591 179.885 54.591 179.717 54.591C179.465 54.591 179.298 54.6329 179.13 54.7587C179.004 54.8426 178.92 55.0103 178.92 55.178C178.92 55.3038 178.962 55.3877 179.046 55.4715C179.13 55.5554 179.214 55.5973 179.34 55.6812C179.465 55.765 179.591 55.8069 179.759 55.8489C179.927 55.8908 180.052 55.9327 180.22 56.0166C180.388 56.0585 180.514 56.1424 180.681 56.1843C180.849 56.2682 180.975 56.352 181.101 56.4359C181.226 56.5197 181.31 56.6455 181.394 56.8132C181.478 56.939 181.52 57.1487 181.52 57.3583C181.52 57.6099 181.478 57.8195 181.394 58.0292C181.31 58.2388 181.185 58.4065 181.017 58.5742C180.849 58.742 180.639 58.8258 180.388 58.9097C180.136 58.9935 179.843 59.0355 179.507 59.0355C179.34 59.0355 179.172 59.0355 179.004 58.9935C178.836 58.9516 178.669 58.9097 178.501 58.8677C178.333 58.8258 178.207 58.742 178.082 58.6581C177.956 58.5742 177.83 58.4904 177.746 58.4065L178.04 57.9453C178.082 57.9034 178.123 57.8615 178.165 57.8195C178.207 57.7776 178.291 57.7776 178.375 57.7776C178.459 57.7776 178.543 57.8195 178.585 57.8615C178.627 57.9034 178.752 57.9453 178.836 57.9872C178.92 58.0292 179.046 58.0711 179.172 58.113C179.298 58.155 179.465 58.1969 179.633 58.1969C179.759 58.1969 179.885 58.1969 180.01 58.155C180.094 58.113 180.22 58.0711 180.262 58.0292C180.304 57.9872 180.388 57.9034 180.43 57.8195C180.472 57.7357 180.472 57.6518 180.472 57.568C180.472 57.4422 180.43 57.3583 180.346 57.2745C180.262 57.1906 180.178 57.1487 180.052 57.0648C179.927 56.9809 179.801 56.939 179.633 56.8971C179.465 56.8552 179.34 56.8132 179.172 56.7294C179.004 56.6874 178.878 56.6036 178.711 56.5617C178.543 56.4778 178.417 56.3939 178.291 56.3101C178.165 56.2262 178.082 56.0585 177.998 55.8908C177.914 55.7231 177.872 55.5554 177.872 55.3038C177.872 55.0942 177.914 54.8845 177.998 54.7168C178.082 54.5072 178.207 54.3814 178.375 54.2137C178.543 54.0879 178.752 53.9621 178.962 53.8782C179.214 53.7944 179.465 53.7524 179.801 53.7524C180.136 53.7524 180.472 53.7944 180.765 53.9202C181.059 54.0459 181.31 54.1717 181.478 54.3814L181.101 54.7587Z" fill="#131544" />
<path d="M188.359 58.8687H187.814C187.688 58.8687 187.604 58.8687 187.52 58.8267C187.437 58.7848 187.395 58.7009 187.353 58.6171L187.227 58.2397C187.101 58.3655 186.975 58.4494 186.85 58.5332C186.724 58.6171 186.598 58.7009 186.472 58.7429C186.346 58.7848 186.179 58.8267 186.053 58.8687C185.885 58.9106 185.717 58.9106 185.55 58.9106C185.34 58.9106 185.13 58.8687 184.963 58.8267C184.795 58.7848 184.627 58.7009 184.501 58.5752C184.376 58.4494 184.25 58.3236 184.208 58.1559C184.124 57.9882 184.082 57.7785 184.082 57.5689C184.082 57.3592 184.124 57.1915 184.25 56.9819C184.334 56.8142 184.501 56.6045 184.753 56.4787C185.005 56.311 185.298 56.1852 185.675 56.1014C186.053 56.0175 186.556 55.9336 187.143 55.9336V55.6401C187.143 55.3047 187.059 55.0531 186.933 54.8854C186.808 54.7177 186.598 54.6339 186.304 54.6339C186.095 54.6339 185.927 54.6758 185.801 54.7177C185.675 54.7596 185.55 54.8016 185.466 54.8854C185.382 54.9693 185.298 55.0112 185.214 55.0531C185.13 55.0951 185.046 55.137 184.921 55.137C184.837 55.137 184.753 55.0951 184.711 55.0531C184.669 55.0112 184.585 54.9693 184.585 54.8854L184.376 54.5081C184.963 53.963 185.675 53.7114 186.514 53.7114C186.808 53.7114 187.059 53.7534 187.311 53.8791C187.562 53.963 187.73 54.1307 187.898 54.2984C188.066 54.4661 188.191 54.6758 188.275 54.9274C188.359 55.1789 188.401 55.4305 188.401 55.724V58.8687H188.359ZM185.969 58.1139C186.095 58.1139 186.221 58.1139 186.304 58.072C186.43 58.0301 186.514 58.0301 186.598 57.9882C186.682 57.9462 186.766 57.9043 186.892 57.8204C186.975 57.7366 187.059 57.6947 187.143 57.5689V56.7303C186.766 56.7303 186.472 56.7722 186.263 56.8141C186.011 56.8561 185.843 56.898 185.675 56.9819C185.55 57.0657 185.424 57.1496 185.382 57.2334C185.34 57.3173 185.298 57.4431 185.298 57.5269C185.298 57.7366 185.382 57.9043 185.508 57.9882C185.592 58.0301 185.759 58.1139 185.969 58.1139Z" fill="#131544" />
<path d="M189.574 58.8687V53.7534H190.329C190.497 53.7534 190.581 53.8372 190.623 53.963L190.706 54.3823C190.79 54.2565 190.916 54.1726 191.042 54.0888C191.168 54.0049 191.293 53.9211 191.419 53.8791C191.545 53.7953 191.671 53.7534 191.839 53.7534C192.006 53.7534 192.132 53.7114 192.3 53.7114C192.593 53.7114 192.845 53.7534 193.055 53.8372C193.264 53.9211 193.432 54.0469 193.6 54.2565C193.767 54.4661 193.851 54.6339 193.935 54.8854C194.019 55.137 194.061 55.3886 194.061 55.6821V58.9525H192.845V55.5982C192.845 55.3047 192.761 55.0531 192.635 54.8854C192.509 54.7177 192.258 54.6339 191.964 54.6339C191.755 54.6339 191.545 54.6758 191.377 54.7596C191.21 54.8435 191 54.9693 190.832 55.137V58.8267H189.574V58.8687Z" fill="#131544" />
<path d="M198.842 58.8687C198.674 58.8687 198.591 58.7849 198.549 58.6591L198.465 58.1559C198.339 58.2817 198.255 58.3656 198.129 58.4914C198.004 58.5752 197.878 58.6591 197.752 58.7429C197.626 58.8268 197.458 58.8687 197.333 58.9106C197.165 58.9526 196.997 58.9526 196.829 58.9526C196.536 58.9526 196.284 58.9106 196.075 58.7849C195.865 58.6591 195.655 58.4914 195.488 58.2817C195.32 58.0721 195.194 57.7786 195.11 57.4431C195.026 57.1077 194.984 56.7303 194.984 56.3111C194.984 55.9337 195.026 55.5983 195.152 55.2628C195.236 54.9274 195.404 54.6339 195.613 54.4243C195.823 54.1727 196.033 54.005 196.326 53.8792C196.578 53.7534 196.913 53.6695 197.249 53.6695C197.542 53.6695 197.794 53.7115 197.962 53.7953C198.129 53.8792 198.339 54.005 198.507 54.1727V51.4893H199.723V58.9106H198.842V58.8687ZM197.207 57.9463C197.458 57.9463 197.668 57.9044 197.878 57.7786C198.045 57.6528 198.213 57.527 198.381 57.3174V55.0113C198.255 54.8436 198.087 54.7178 197.92 54.6339C197.752 54.5501 197.584 54.5501 197.375 54.5501C197.207 54.5501 197.039 54.592 196.871 54.6339C196.704 54.7178 196.578 54.8016 196.494 54.9693C196.41 55.0951 196.326 55.3048 196.242 55.5144C196.2 55.7241 196.158 55.9756 196.158 56.2691C196.158 56.5626 196.2 56.8142 196.242 57.0238C196.284 57.2335 196.368 57.4012 196.452 57.527C196.536 57.6528 196.662 57.7366 196.787 57.8205C196.871 57.9463 197.039 57.9463 197.207 57.9463Z" fill="#131544" />
<path d="M203.957 53.7534V57.0238C203.957 57.3173 204.041 57.5689 204.167 57.7366C204.293 57.9043 204.544 57.9882 204.838 57.9882C205.047 57.9882 205.257 57.9462 205.425 57.8624C205.593 57.7785 205.802 57.6527 205.97 57.485V53.7953H207.186V58.9106H206.431C206.263 58.9106 206.18 58.8267 206.138 58.7009L206.054 58.2817C205.928 58.4074 205.844 58.4913 205.718 58.5752C205.593 58.659 205.467 58.7429 205.341 58.7848C205.215 58.8267 205.089 58.9106 204.922 58.9106C204.754 58.9106 204.628 58.9525 204.46 58.9525C204.167 58.9525 203.915 58.9106 203.706 58.8267C203.496 58.7429 203.328 58.6171 203.16 58.4074C202.993 58.1978 202.909 58.0301 202.825 57.7785C202.741 57.5269 202.699 57.2754 202.699 56.9819V53.7114H203.957V53.7534Z" fill="#131544" />
<path d="M208.484 58.8687V53.7534H209.239C209.407 53.7534 209.491 53.8372 209.533 53.963L209.617 54.3823C209.7 54.2565 209.826 54.1726 209.952 54.0888C210.078 54.0049 210.204 53.9211 210.329 53.8791C210.455 53.7953 210.581 53.7534 210.749 53.7534C210.916 53.7534 211.042 53.7114 211.21 53.7114C211.504 53.7114 211.755 53.7534 211.965 53.8372C212.174 53.9211 212.342 54.0469 212.51 54.2565C212.678 54.4661 212.762 54.6339 212.845 54.8854C212.929 55.137 212.971 55.3886 212.971 55.6821V58.9525H211.755V55.5982C211.755 55.3047 211.671 55.0531 211.545 54.8854C211.42 54.7177 211.168 54.6339 210.875 54.6339C210.665 54.6339 210.455 54.6758 210.287 54.7596C210.12 54.8435 209.91 54.9693 209.742 55.137V58.8267H208.484V58.8687Z" fill="#131544" />
<path d="M215.653 52.244C215.653 52.3698 215.611 52.4536 215.569 52.5375C215.527 52.6213 215.485 52.7052 215.401 52.7891C215.318 52.8729 215.234 52.9148 215.15 52.9568C215.066 52.9987 214.94 52.9987 214.856 52.9987C214.731 52.9987 214.647 52.9987 214.563 52.9568C214.479 52.9148 214.395 52.8729 214.311 52.7891C214.227 52.7052 214.185 52.6213 214.143 52.5375C214.102 52.4536 214.102 52.3278 214.102 52.244C214.102 52.1182 214.102 52.0343 214.143 51.9505C214.185 51.8666 214.227 51.7828 214.311 51.6989C214.395 51.615 214.479 51.5731 214.563 51.5312C214.647 51.4893 214.772 51.4893 214.856 51.4893C214.982 51.4893 215.066 51.4893 215.15 51.5312C215.234 51.5731 215.318 51.615 215.401 51.6989C215.485 51.7828 215.527 51.8666 215.569 51.9505C215.653 52.0343 215.653 52.1601 215.653 52.244ZM215.485 53.7534V58.8687H214.269V53.7534H215.485Z" fill="#131544" />
<path d="M219.43 58.8677H218.298L216.285 53.7524H217.292C217.375 53.7524 217.459 53.7944 217.501 53.8363C217.543 53.8782 217.585 53.9202 217.627 54.004L218.633 56.7294C218.675 56.8971 218.717 57.0648 218.759 57.1906C218.801 57.3583 218.843 57.4841 218.843 57.6518C218.885 57.4841 218.927 57.3583 218.927 57.1906C218.969 57.0229 219.011 56.8971 219.095 56.7294L220.101 54.004C220.143 53.9202 220.185 53.8782 220.227 53.8363C220.269 53.7944 220.353 53.7524 220.436 53.7524H221.401L219.43 58.8677Z" fill="#131544" />
<path d="M224.123 53.6685C224.459 53.6685 224.752 53.7104 225.004 53.8362C225.256 53.92 225.507 54.0877 225.717 54.2974C225.927 54.507 226.052 54.7167 226.178 55.0102C226.304 55.3037 226.346 55.6391 226.346 55.9745C226.346 56.0584 226.346 56.1423 226.346 56.2261C226.346 56.268 226.304 56.3519 226.304 56.3519C226.262 56.3938 226.262 56.3938 226.22 56.4358C226.178 56.4358 226.136 56.4777 226.094 56.4777H222.949C222.991 57.0228 223.117 57.4001 223.369 57.6517C223.62 57.9033 223.956 58.029 224.333 58.029C224.543 58.029 224.711 57.9871 224.836 57.9452C224.962 57.9033 225.088 57.8613 225.214 57.7775C225.34 57.6936 225.423 57.6517 225.507 57.6098C225.591 57.5678 225.675 57.5259 225.759 57.5259C225.801 57.5259 225.843 57.5259 225.885 57.5678C225.927 57.5678 225.969 57.6098 225.969 57.6517L226.346 58.1129C226.22 58.2806 226.052 58.4064 225.885 58.5322C225.717 58.658 225.549 58.7418 225.34 58.7838C225.172 58.8676 224.962 58.9095 224.794 58.9095C224.585 58.9515 224.417 58.9515 224.249 58.9515C223.914 58.9515 223.578 58.9096 223.243 58.7838C222.907 58.658 222.656 58.4903 222.446 58.2806C222.237 58.071 222.027 57.7775 221.901 57.442C221.775 57.1066 221.691 56.6873 221.691 56.268C221.691 55.9326 221.733 55.5972 221.859 55.3037C221.985 55.0102 222.153 54.7167 222.362 54.507C222.572 54.2974 222.824 54.0877 223.117 53.962C223.411 53.7523 223.746 53.6685 224.123 53.6685ZM224.165 54.549C223.788 54.549 223.536 54.6328 223.327 54.8425C223.117 55.0521 222.991 55.3456 222.949 55.723H225.256C225.256 55.5553 225.214 55.4295 225.172 55.2617C225.13 55.136 225.046 55.0102 224.962 54.8844C224.878 54.7586 224.752 54.6747 224.627 54.6328C224.501 54.5909 224.333 54.549 224.165 54.549Z" fill="#131544" />
<path d="M227.355 58.8676V53.7523H228.068C228.194 53.7523 228.278 53.7942 228.32 53.8362C228.362 53.8781 228.404 53.962 228.404 54.0877L228.488 54.7167C228.655 54.3812 228.865 54.1716 229.117 53.962C229.368 53.7942 229.62 53.6685 229.955 53.6685C230.207 53.6685 230.417 53.7104 230.584 53.8362L230.417 54.7586C230.417 54.8005 230.375 54.8425 230.333 54.8844C230.291 54.9263 230.249 54.9263 230.207 54.9263C230.165 54.9263 230.081 54.9263 229.997 54.8844C229.913 54.8425 229.788 54.8425 229.662 54.8425C229.41 54.8425 229.201 54.9263 228.991 55.0521C228.823 55.1779 228.655 55.3875 228.53 55.681V58.8676H227.355Z" fill="#131544" />
<path d="M234.484 54.7587C234.442 54.8007 234.4 54.8426 234.4 54.8845C234.4 54.9264 234.316 54.9264 234.274 54.9264C234.232 54.9264 234.148 54.9264 234.064 54.8845C233.98 54.8426 233.896 54.8007 233.813 54.7587C233.729 54.7168 233.603 54.6749 233.519 54.6329C233.435 54.591 233.267 54.591 233.1 54.591C232.848 54.591 232.68 54.6329 232.513 54.7587C232.387 54.8426 232.303 55.0103 232.303 55.178C232.303 55.3038 232.345 55.3877 232.429 55.4715C232.513 55.5554 232.597 55.5973 232.722 55.6812C232.848 55.765 232.974 55.8069 233.142 55.8489C233.309 55.8908 233.435 55.9327 233.603 56.0166C233.771 56.0585 233.896 56.1424 234.064 56.1843C234.232 56.2682 234.358 56.352 234.484 56.4359C234.609 56.5197 234.693 56.6455 234.777 56.8132C234.861 56.939 234.903 57.1487 234.903 57.3583C234.903 57.6099 234.861 57.8195 234.777 58.0292C234.693 58.2388 234.567 58.4065 234.4 58.5742C234.232 58.742 234.022 58.8258 233.771 58.9097C233.519 58.9935 233.226 59.0355 232.89 59.0355C232.722 59.0355 232.555 59.0355 232.387 58.9935C232.219 58.9516 232.051 58.9097 231.884 58.8677C231.716 58.8258 231.59 58.742 231.464 58.6581C231.339 58.5742 231.213 58.4904 231.129 58.4065L231.422 57.9453C231.464 57.9034 231.506 57.8615 231.548 57.8195C231.59 57.7776 231.674 57.7776 231.758 57.7776C231.842 57.7776 231.926 57.8195 231.968 57.8615C232.051 57.9034 232.135 57.9453 232.219 57.9872C232.303 58.0292 232.429 58.0711 232.555 58.113C232.68 58.155 232.848 58.1969 233.016 58.1969C233.142 58.1969 233.267 58.1969 233.393 58.155C233.477 58.113 233.603 58.0711 233.645 58.0292C233.729 57.9872 233.771 57.9034 233.813 57.8195C233.855 57.7357 233.855 57.6518 233.855 57.568C233.855 57.4422 233.813 57.3583 233.729 57.2745C233.645 57.1906 233.561 57.1487 233.435 57.0648C233.309 56.9809 233.184 56.939 233.016 56.8971C232.848 56.8552 232.722 56.8132 232.555 56.7294C232.387 56.6874 232.261 56.6036 232.093 56.5617C231.926 56.4778 231.8 56.3939 231.674 56.3101C231.548 56.2262 231.464 56.0585 231.381 55.8908C231.297 55.7231 231.255 55.5554 231.255 55.3038C231.255 55.0942 231.297 54.8845 231.381 54.7168C231.464 54.5072 231.59 54.3814 231.758 54.2137C231.926 54.0879 232.135 53.9621 232.345 53.8782C232.555 53.7944 232.848 53.7524 233.184 53.7524C233.519 53.7524 233.855 53.7944 234.148 53.9202C234.442 54.0459 234.693 54.1717 234.861 54.3814L234.484 54.7587Z" fill="#131544" />
<path d="M237.298 52.244C237.298 52.3698 237.256 52.4536 237.214 52.5375C237.172 52.6213 237.13 52.7052 237.046 52.7891C236.962 52.8729 236.878 52.9148 236.794 52.9568C236.711 52.9987 236.585 52.9987 236.501 52.9987C236.375 52.9987 236.291 52.9987 236.207 52.9568C236.124 52.9148 236.04 52.8729 235.956 52.7891C235.872 52.7052 235.83 52.6213 235.788 52.5375C235.746 52.4536 235.746 52.3278 235.746 52.244C235.746 52.1182 235.746 52.0343 235.788 51.9505C235.83 51.8666 235.872 51.7828 235.956 51.6989C236.04 51.615 236.124 51.5731 236.207 51.5312C236.291 51.4893 236.417 51.4893 236.501 51.4893C236.627 51.4893 236.711 51.4893 236.794 51.5312C236.878 51.5731 236.962 51.615 237.046 51.6989C237.13 51.7828 237.172 51.8666 237.214 51.9505C237.256 52.0343 237.298 52.1601 237.298 52.244ZM237.088 53.7534V58.8687H235.872V53.7534H237.088Z" fill="#131544" />
<path d="M240.142 58.9522C239.681 58.9522 239.346 58.8264 239.136 58.5748C238.926 58.3233 238.759 57.9878 238.759 57.5266V54.6755H238.255C238.172 54.6755 238.13 54.6335 238.088 54.5916C238.046 54.5497 238.004 54.4658 238.004 54.382V53.9207L238.843 53.795L239.094 52.4113C239.094 52.3274 239.136 52.2855 239.178 52.2436C239.22 52.2017 239.304 52.2017 239.346 52.2017H239.975V53.795H241.317V54.6755H240.017V57.4427C240.017 57.6105 240.059 57.7363 240.142 57.8201C240.226 57.904 240.31 57.9459 240.478 57.9459C240.562 57.9459 240.604 57.9459 240.688 57.904C240.73 57.904 240.771 57.862 240.813 57.862C240.855 57.862 240.897 57.8201 240.897 57.8201C240.939 57.8201 240.939 57.7782 240.981 57.7782C241.023 57.7782 241.065 57.7782 241.065 57.8201C241.107 57.8201 241.107 57.862 241.149 57.904L241.526 58.491C241.358 58.6587 241.149 58.7425 240.897 58.8264C240.646 58.9103 240.394 58.9522 240.142 58.9522Z" fill="#131544" />
<path d="M243.837 52.244C243.837 52.3698 243.795 52.4536 243.753 52.5375C243.711 52.6213 243.669 52.7052 243.585 52.7891C243.501 52.8729 243.417 52.9148 243.333 52.9568C243.25 52.9987 243.124 52.9987 243.04 52.9987C242.914 52.9987 242.83 52.9987 242.746 52.9568C242.663 52.9148 242.579 52.8729 242.495 52.7891C242.411 52.7052 242.369 52.6213 242.327 52.5375C242.285 52.4536 242.285 52.3278 242.285 52.244C242.285 52.1182 242.285 52.0343 242.327 51.9505C242.369 51.8666 242.411 51.7828 242.495 51.6989C242.579 51.615 242.663 51.5731 242.746 51.5312C242.83 51.4893 242.956 51.4893 243.04 51.4893C243.166 51.4893 243.25 51.4893 243.333 51.5312C243.417 51.5731 243.501 51.615 243.585 51.6989C243.669 51.7828 243.711 51.8666 243.753 51.9505C243.837 52.0343 243.837 52.1601 243.837 52.244ZM243.669 53.7534V58.8687H242.453V53.7534H243.669Z" fill="#131544" />
<path d="M247.147 53.6685C247.482 53.6685 247.776 53.7104 248.027 53.8362C248.279 53.92 248.531 54.0877 248.74 54.2974C248.95 54.507 249.076 54.7167 249.202 55.0102C249.327 55.3037 249.369 55.6391 249.369 55.9745C249.369 56.0584 249.369 56.1423 249.369 56.2261C249.369 56.268 249.327 56.3519 249.327 56.3519C249.285 56.3938 249.285 56.3938 249.244 56.4358C249.202 56.4358 249.16 56.4777 249.118 56.4777H245.973C246.015 57.0228 246.141 57.4001 246.392 57.6517C246.644 57.9033 246.979 58.029 247.357 58.029C247.566 58.029 247.734 57.9871 247.86 57.9452C247.986 57.9033 248.111 57.8613 248.237 57.7775C248.363 57.6936 248.447 57.6517 248.531 57.6098C248.615 57.5678 248.698 57.5259 248.782 57.5259C248.824 57.5259 248.866 57.5259 248.908 57.5678C248.95 57.5678 248.992 57.6098 248.992 57.6517L249.369 58.1129C249.244 58.2806 249.076 58.4064 248.908 58.5322C248.74 58.658 248.573 58.7418 248.363 58.7838C248.195 58.8676 247.986 58.9095 247.818 58.9095C247.608 58.9515 247.44 58.9515 247.273 58.9515C246.937 58.9515 246.602 58.9096 246.266 58.7838C245.931 58.658 245.679 58.4903 245.47 58.2806C245.26 58.071 245.05 57.7775 244.925 57.442C244.799 57.1066 244.715 56.6873 244.715 56.268C244.715 55.9326 244.757 55.5972 244.883 55.3037C245.008 55.0102 245.176 54.7167 245.386 54.507C245.595 54.2974 245.847 54.0877 246.141 53.962C246.434 53.7523 246.77 53.6685 247.147 53.6685ZM247.189 54.549C246.811 54.549 246.56 54.6328 246.35 54.8425C246.141 55.0521 246.015 55.3456 245.973 55.723H248.279C248.279 55.5553 248.237 55.4295 248.195 55.2617C248.153 55.136 248.069 55.0102 247.986 54.8844C247.902 54.7586 247.776 54.6747 247.65 54.6328C247.524 54.5909 247.357 54.549 247.189 54.549Z" fill="#131544" />
<path d="M253.398 54.7587C253.356 54.8007 253.314 54.8426 253.314 54.8845C253.314 54.9264 253.23 54.9264 253.188 54.9264C253.146 54.9264 253.062 54.9264 252.978 54.8845C252.894 54.8426 252.811 54.8007 252.727 54.7587C252.643 54.7168 252.517 54.6749 252.433 54.6329C252.349 54.591 252.182 54.591 252.014 54.591C251.762 54.591 251.594 54.6329 251.427 54.7587C251.301 54.8426 251.217 55.0103 251.217 55.178C251.217 55.3038 251.259 55.3877 251.343 55.4715C251.427 55.5554 251.511 55.5973 251.636 55.6812C251.762 55.765 251.888 55.8069 252.056 55.8489C252.223 55.8908 252.349 55.9327 252.517 56.0166C252.685 56.0585 252.811 56.1424 252.978 56.1843C253.146 56.2682 253.272 56.352 253.398 56.4359C253.523 56.5197 253.607 56.6455 253.691 56.8132C253.775 56.939 253.817 57.1487 253.817 57.3583C253.817 57.6099 253.775 57.8195 253.691 58.0292C253.607 58.2388 253.481 58.4065 253.314 58.5742C253.146 58.742 252.936 58.8258 252.685 58.9097C252.433 58.9935 252.14 59.0355 251.804 59.0355C251.636 59.0355 251.469 59.0355 251.301 58.9935C251.133 58.9516 250.965 58.9097 250.798 58.8677C250.63 58.8258 250.504 58.742 250.378 58.6581C250.253 58.5742 250.127 58.4904 250.043 58.4065L250.336 57.9453C250.378 57.9034 250.42 57.8615 250.462 57.8195C250.504 57.7776 250.588 57.7776 250.672 57.7776C250.756 57.7776 250.84 57.8195 250.882 57.8615C250.965 57.9034 251.049 57.9453 251.133 57.9872C251.217 58.0292 251.343 58.0711 251.469 58.113C251.594 58.155 251.762 58.1969 251.93 58.1969C252.056 58.1969 252.182 58.1969 252.307 58.155C252.391 58.113 252.517 58.0711 252.559 58.0292C252.643 57.9872 252.685 57.9034 252.727 57.8195C252.769 57.7357 252.769 57.6518 252.769 57.568C252.769 57.4422 252.727 57.3583 252.643 57.2745C252.559 57.1906 252.475 57.1487 252.349 57.0648C252.223 56.9809 252.098 56.939 251.93 56.8971C251.762 56.8552 251.636 56.8132 251.469 56.7294C251.301 56.6874 251.175 56.6036 251.007 56.5617C250.84 56.4778 250.714 56.3939 250.588 56.3101C250.462 56.2262 250.378 56.0585 250.295 55.8908C250.211 55.7231 250.169 55.5554 250.169 55.3038C250.169 55.0942 250.211 54.8845 250.295 54.7168C250.378 54.5072 250.504 54.3814 250.672 54.2137C250.84 54.0879 251.049 53.9621 251.259 53.8782C251.469 53.7944 251.762 53.7524 252.098 53.7524C252.433 53.7524 252.769 53.7944 253.062 53.9202C253.356 54.0459 253.607 54.1717 253.775 54.3814L253.398 54.7587Z" fill="#131544" />
<path d="M240.236 19.5386C244.052 19.5386 247.49 21.0899 250.006 23.6057C252.522 26.1214 254.074 29.5595 254.074 33.3751C254.074 37.1906 252.522 40.6287 250.006 43.1444C247.49 45.6602 244.052 47.2115 240.236 47.2115C236.42 47.2115 232.982 45.6602 230.466 43.1444C227.95 40.6287 226.398 37.1906 226.398 33.3751C226.398 29.5595 227.95 26.1214 230.466 23.6057C232.982 21.0899 236.42 19.5386 240.236 19.5386ZM249.084 24.5281C246.82 22.2639 243.717 20.8803 240.278 20.8803C236.84 20.8803 233.737 22.2639 231.472 24.5281C229.208 26.7922 227.824 29.895 227.824 33.3331C227.824 36.7713 229.208 39.874 231.472 42.1382C233.737 44.4023 236.84 45.786 240.278 45.786C243.717 45.786 246.82 44.4023 249.084 42.1382C251.348 39.874 252.732 36.7713 252.732 33.3331C252.732 29.895 251.348 26.7922 249.084 24.5281Z" fill="#FECF09" />
<path d="M240.24 19.5386C242.462 19.5386 244.559 20.0836 246.446 21.0061C248.374 21.9704 250.052 23.396 251.352 25.1151L251.729 25.6182L251.226 26.0375C249.926 27.0857 248.249 27.9243 246.32 28.4694C244.475 29.0145 242.42 29.308 240.24 29.308C238.059 29.308 235.962 29.0145 234.159 28.4694C232.23 27.8824 230.553 27.0438 229.253 26.0375L228.75 25.6182L229.127 25.1151C230.427 23.396 232.105 21.9704 234.034 21.0061C235.92 20.0417 238.017 19.5386 240.24 19.5386ZM245.858 22.222C244.181 21.3834 242.294 20.8803 240.24 20.8803C238.227 20.8803 236.34 21.3415 234.621 22.222C233.069 23.0187 231.727 24.1088 230.637 25.4086C231.727 26.1633 233.027 26.7503 234.537 27.2115C236.256 27.7147 238.185 28.0082 240.24 28.0082C242.294 28.0082 244.223 27.7147 245.942 27.2115C247.452 26.7503 248.752 26.1633 249.842 25.4086C248.752 24.0669 247.41 22.9767 245.858 22.222Z" fill="#FECF09" />
<path d="M240.237 19.5386C242.165 19.5386 243.843 21.1319 245.059 23.7314C246.233 26.2052 246.946 29.6015 246.946 33.3751C246.946 37.1486 246.233 40.5449 245.059 43.0187C243.843 45.6182 242.124 47.2115 240.237 47.2115C238.308 47.2115 236.63 45.6182 235.414 43.0187C234.24 40.5449 233.527 37.1486 233.527 33.3751C233.527 29.6015 234.24 26.2052 235.414 23.7314C236.63 21.1319 238.35 19.5386 240.237 19.5386ZM244.178 24.4023C243.172 22.222 241.788 20.8803 240.278 20.8803C238.769 20.8803 237.385 22.222 236.379 24.4023C235.289 26.6665 234.66 29.853 234.66 33.3331C234.66 36.8551 235.33 39.9998 236.379 42.3059C237.385 44.4862 238.769 45.8279 240.278 45.8279C241.788 45.8279 243.172 44.4862 244.178 42.3059C245.268 40.0417 245.897 36.8551 245.897 33.3331C245.897 29.853 245.227 26.6665 244.178 24.4023Z" fill="#FECF09" />
<path d="M240.24 45.7861C242.252 45.7861 244.139 45.3249 245.858 44.4443C247.41 43.6477 248.752 42.5576 249.842 41.2578C248.752 40.5031 247.452 39.9161 245.942 39.4548C244.223 38.9517 242.294 38.6582 240.24 38.6582C238.185 38.6582 236.256 38.9517 234.537 39.4548C233.027 39.9161 231.727 40.5031 230.637 41.2578C231.727 42.5576 233.111 43.6477 234.621 44.4443C236.34 45.3249 238.227 45.7861 240.24 45.7861ZM246.446 45.6603C244.559 46.5827 242.462 47.1278 240.24 47.1278C238.017 47.1278 235.92 46.5827 234.034 45.6603C232.105 44.6959 230.427 43.2703 229.127 41.5513L228.75 41.0481L229.253 40.6288C230.553 39.5806 232.23 38.742 234.159 38.197C236.004 37.6519 238.059 37.3584 240.24 37.3584C242.42 37.3584 244.517 37.6519 246.32 38.197C248.249 38.784 249.926 39.6226 251.226 40.6288L251.729 41.0481L251.352 41.5513C250.094 43.2703 248.416 44.6959 246.446 45.6603Z" fill="#FECF09" />
<path d="M240.946 20.21V46.4993H239.562V20.21H240.946Z" fill="#FECF09" />
<path d="M227.113 32.6631H253.405V34.0467H227.113V32.6631Z" fill="#FECF09" />
</svg>